<svg width="967" height="398" viewBox="0 0 967 398" fill="none" xmlns="http://www.w3.org/2000/svg">
<g filter="url(#filter0_d_8_218)">
<rect x="4" width="959" height="390" rx="10" fill="#E3E3EC"/>
<rect x="4.5" y="0.5" width="958" height="389" rx="9.5" stroke="black"/>
</g>
<path d="M453.844 25.2969C453.844 24.9844 453.745 24.7083 453.547 24.4688C453.359 24.2292 453.016 24.0104 452.516 23.8125C452.026 23.6146 451.333 23.4167 450.438 23.2188C449.594 23.0417 448.807 22.8125 448.078 22.5312C447.349 22.2396 446.714 21.8906 446.172 21.4844C445.63 21.0677 445.208 20.5781 444.906 20.0156C444.604 19.4427 444.453 18.7917 444.453 18.0625C444.453 17.3542 444.604 16.6823 444.906 16.0469C445.219 15.4115 445.667 14.849 446.25 14.3594C446.844 13.8698 447.562 13.4844 448.406 13.2031C449.26 12.9219 450.229 12.7812 451.312 12.7812C452.802 12.7812 454.089 13.0156 455.172 13.4844C456.255 13.9427 457.089 14.5885 457.672 15.4219C458.255 16.2448 458.547 17.1875 458.547 18.25H453.672C453.672 17.8125 453.589 17.4323 453.422 17.1094C453.255 16.7865 453 16.5365 452.656 16.3594C452.312 16.1719 451.859 16.0781 451.297 16.0781C450.859 16.0781 450.474 16.1562 450.141 16.3125C449.818 16.4583 449.562 16.6615 449.375 16.9219C449.198 17.1823 449.109 17.4844 449.109 17.8281C449.109 18.0677 449.161 18.2865 449.266 18.4844C449.38 18.6719 449.552 18.849 449.781 19.0156C450.021 19.1719 450.328 19.3125 450.703 19.4375C451.089 19.5625 451.557 19.6823 452.109 19.7969C453.286 20.0156 454.359 20.3229 455.328 20.7188C456.307 21.1146 457.089 21.6615 457.672 22.3594C458.266 23.0573 458.562 23.9792 458.562 25.125C458.562 25.875 458.391 26.5625 458.047 27.1875C457.714 27.8125 457.229 28.3594 456.594 28.8281C455.958 29.2969 455.198 29.6615 454.312 29.9219C453.427 30.1823 452.427 30.3125 451.312 30.3125C449.719 30.3125 448.37 30.026 447.266 29.4531C446.161 28.8802 445.328 28.1615 444.766 27.2969C444.214 26.4219 443.938 25.526 443.938 24.6094H448.516C448.536 25.1719 448.677 25.6302 448.938 25.9844C449.208 26.3385 449.557 26.599 449.984 26.7656C450.411 26.9219 450.891 27 451.422 27C451.953 27 452.396 26.9271 452.75 26.7812C453.104 26.6354 453.375 26.4375 453.562 26.1875C453.75 25.9271 453.844 25.6302 453.844 25.2969ZM466.172 16.3438V36.5H461.297V13.0938H465.844L466.172 16.3438ZM476.719 21.3594V21.6875C476.719 22.9167 476.578 24.0573 476.297 25.1094C476.016 26.151 475.594 27.0625 475.031 27.8438C474.479 28.625 473.797 29.2344 472.984 29.6719C472.172 30.099 471.229 30.3125 470.156 30.3125C469.135 30.3125 468.25 30.099 467.5 29.6719C466.76 29.2344 466.135 28.6302 465.625 27.8594C465.125 27.0781 464.719 26.1875 464.406 25.1875C464.104 24.1771 463.87 23.099 463.703 21.9531V21.3125C463.87 20.0938 464.109 18.9635 464.422 17.9219C464.734 16.8802 465.141 15.9792 465.641 15.2188C466.141 14.4479 466.76 13.849 467.5 13.4219C468.24 12.9948 469.12 12.7812 470.141 12.7812C471.203 12.7812 472.146 12.9844 472.969 13.3906C473.792 13.7969 474.479 14.3802 475.031 15.1406C475.594 15.8906 476.016 16.7917 476.297 17.8438C476.578 18.8958 476.719 20.0677 476.719 21.3594ZM471.828 21.6875V21.3594C471.828 20.6719 471.776 20.0417 471.672 19.4688C471.568 18.8854 471.401 18.3802 471.172 17.9531C470.943 17.5156 470.641 17.1771 470.266 16.9375C469.891 16.6979 469.432 16.5781 468.891 16.5781C468.307 16.5781 467.812 16.6719 467.406 16.8594C467 17.0469 466.672 17.3229 466.422 17.6875C466.172 18.0417 465.99 18.4792 465.875 19C465.771 19.5208 465.714 20.1146 465.703 20.7812V22.5C465.714 23.2812 465.823 23.9792 466.031 24.5938C466.25 25.1979 466.589 25.6719 467.047 26.0156C467.516 26.349 468.141 26.5156 468.922 26.5156C469.474 26.5156 469.932 26.3958 470.297 26.1562C470.672 25.9062 470.969 25.5573 471.188 25.1094C471.417 24.6615 471.578 24.1458 471.672 23.5625C471.776 22.9792 471.828 22.3542 471.828 21.6875ZM488.266 25.9688V18.7188C488.266 18.2083 488.188 17.7708 488.031 17.4062C487.875 17.0417 487.63 16.7552 487.297 16.5469C486.964 16.3385 486.531 16.2344 486 16.2344C485.552 16.2344 485.161 16.3125 484.828 16.4688C484.505 16.625 484.255 16.849 484.078 17.1406C483.911 17.4323 483.828 17.7917 483.828 18.2188H478.953C478.953 17.4583 479.125 16.75 479.469 16.0938C479.812 15.4375 480.302 14.8594 480.938 14.3594C481.583 13.8594 482.354 13.474 483.25 13.2031C484.146 12.9219 485.151 12.7812 486.266 12.7812C487.589 12.7812 488.766 13.0052 489.797 13.4531C490.839 13.8906 491.661 14.5521 492.266 15.4375C492.87 16.3125 493.172 17.4167 493.172 18.75V25.8281C493.172 26.849 493.229 27.651 493.344 28.2344C493.469 28.8073 493.646 29.3073 493.875 29.7344V30H488.953C488.724 29.5104 488.552 28.9062 488.438 28.1875C488.323 27.4583 488.266 26.7188 488.266 25.9688ZM488.875 19.6875L488.906 22.375H486.484C485.943 22.375 485.474 22.4427 485.078 22.5781C484.693 22.7135 484.38 22.901 484.141 23.1406C483.901 23.3698 483.724 23.6406 483.609 23.9531C483.505 24.2552 483.453 24.5885 483.453 24.9531C483.453 25.2969 483.536 25.6094 483.703 25.8906C483.87 26.1615 484.099 26.375 484.391 26.5312C484.682 26.6875 485.021 26.7656 485.406 26.7656C486.042 26.7656 486.583 26.6406 487.031 26.3906C487.49 26.1406 487.844 25.8385 488.094 25.4844C488.344 25.1198 488.469 24.7812 488.469 24.4688L489.641 26.5C489.453 26.9167 489.224 27.349 488.953 27.7969C488.682 28.2344 488.339 28.6458 487.922 29.0312C487.505 29.4062 487 29.7135 486.406 29.9531C485.823 30.1927 485.12 30.3125 484.297 30.3125C483.234 30.3125 482.271 30.099 481.406 29.6719C480.542 29.2344 479.849 28.6354 479.328 27.875C478.818 27.1146 478.562 26.2396 478.562 25.25C478.562 24.3646 478.724 23.5781 479.047 22.8906C479.37 22.2031 479.854 21.6198 480.5 21.1406C481.156 20.6615 481.979 20.3021 482.969 20.0625C483.958 19.8125 485.115 19.6875 486.438 19.6875H488.875ZM503.438 26.5156C503.958 26.5156 504.411 26.4167 504.797 26.2188C505.182 26.0208 505.479 25.7448 505.688 25.3906C505.906 25.026 506.016 24.5885 506.016 24.0781H510.609C510.609 25.3073 510.292 26.3906 509.656 27.3281C509.031 28.2656 508.188 29 507.125 29.5312C506.062 30.0521 504.865 30.3125 503.531 30.3125C502.219 30.3125 501.073 30.099 500.094 29.6719C499.115 29.2344 498.297 28.625 497.641 27.8438C496.984 27.0625 496.49 26.1562 496.156 25.125C495.833 24.0833 495.672 22.9583 495.672 21.75V21.3438C495.672 20.1458 495.833 19.026 496.156 17.9844C496.49 16.9427 496.984 16.0312 497.641 15.25C498.297 14.4688 499.109 13.8646 500.078 13.4375C501.057 13 502.203 12.7812 503.516 12.7812C504.901 12.7812 506.125 13.0469 507.188 13.5781C508.26 14.1094 509.099 14.875 509.703 15.875C510.307 16.8646 510.609 18.0573 510.609 19.4531H506.016C506.016 18.9115 505.917 18.4271 505.719 18C505.531 17.5625 505.24 17.2188 504.844 16.9688C504.458 16.7083 503.979 16.5781 503.406 16.5781C502.812 16.5781 502.323 16.7083 501.938 16.9688C501.562 17.2188 501.276 17.5677 501.078 18.0156C500.88 18.4635 500.745 18.974 500.672 19.5469C500.599 20.1094 500.562 20.7083 500.562 21.3438V21.75C500.562 22.3958 500.599 23.0104 500.672 23.5938C500.745 24.1667 500.88 24.6719 501.078 25.1094C501.286 25.5469 501.578 25.8906 501.953 26.1406C502.328 26.3906 502.823 26.5156 503.438 26.5156ZM521 30.3125C519.656 30.3125 518.453 30.099 517.391 29.6719C516.328 29.2448 515.427 28.6562 514.688 27.9062C513.958 27.1458 513.401 26.2708 513.016 25.2812C512.63 24.2917 512.438 23.2344 512.438 22.1094V21.5156C512.438 20.2552 512.615 19.0938 512.969 18.0312C513.323 16.9688 513.839 16.0469 514.516 15.2656C515.203 14.474 516.047 13.8646 517.047 13.4375C518.047 13 519.188 12.7812 520.469 12.7812C521.667 12.7812 522.734 12.9792 523.672 13.375C524.609 13.7604 525.401 14.3177 526.047 15.0469C526.693 15.7656 527.182 16.6354 527.516 17.6562C527.859 18.6667 528.031 19.8021 528.031 21.0625V23.0625H514.406V19.9219H523.25V19.5469C523.25 18.9531 523.141 18.4323 522.922 17.9844C522.714 17.5365 522.401 17.1927 521.984 16.9531C521.578 16.7031 521.062 16.5781 520.438 16.5781C519.844 16.5781 519.349 16.7031 518.953 16.9531C518.557 17.2031 518.24 17.5573 518 18.0156C517.771 18.4635 517.604 18.9896 517.5 19.5938C517.396 20.1875 517.344 20.8281 517.344 21.5156V22.1094C517.344 22.7656 517.432 23.3646 517.609 23.9062C517.786 24.4479 518.047 24.9115 518.391 25.2969C518.734 25.6823 519.151 25.9844 519.641 26.2031C520.13 26.4219 520.688 26.5312 521.312 26.5312C522.083 26.5312 522.818 26.3854 523.516 26.0938C524.214 25.7917 524.818 25.3229 525.328 24.6875L527.609 27.2969C527.266 27.7969 526.781 28.2812 526.156 28.75C525.542 29.2083 524.802 29.5833 523.938 29.875C523.073 30.1667 522.094 30.3125 521 30.3125Z" fill="black"/>
<g filter="url(#filter1_d_8_218)">
<rect x="42" y="68" width="271" height="302" rx="10" fill="#F1F1F4"/>
<rect x="42.5" y="68.5" width="270" height="301" rx="9.5" stroke="black"/>
</g>
<path d="M118.531 93.5469L122.062 80.0938H127.188L121.578 97H118.5L118.531 93.5469ZM116.25 80.0938L119.766 93.5625L119.797 97H116.719L111.109 80.0938H116.25ZM136.734 97.3125C135.391 97.3125 134.188 97.099 133.125 96.6719C132.062 96.2448 131.161 95.6562 130.422 94.9062C129.693 94.1458 129.135 93.2708 128.75 92.2812C128.365 91.2917 128.172 90.2344 128.172 89.1094V88.5156C128.172 87.2552 128.349 86.0938 128.703 85.0312C129.057 83.9688 129.573 83.0469 130.25 82.2656C130.938 81.474 131.781 80.8646 132.781 80.4375C133.781 80 134.922 79.7812 136.203 79.7812C137.401 79.7812 138.469 79.9792 139.406 80.375C140.344 80.7604 141.135 81.3177 141.781 82.0469C142.427 82.7656 142.917 83.6354 143.25 84.6562C143.594 85.6667 143.766 86.8021 143.766 88.0625V90.0625H130.141V86.9219H138.984V86.5469C138.984 85.9531 138.875 85.4323 138.656 84.9844C138.448 84.5365 138.135 84.1927 137.719 83.9531C137.312 83.7031 136.797 83.5781 136.172 83.5781C135.578 83.5781 135.083 83.7031 134.688 83.9531C134.292 84.2031 133.974 84.5573 133.734 85.0156C133.505 85.4635 133.339 85.9896 133.234 86.5938C133.13 87.1875 133.078 87.8281 133.078 88.5156V89.1094C133.078 89.7656 133.167 90.3646 133.344 90.9062C133.521 91.4479 133.781 91.9115 134.125 92.2969C134.469 92.6823 134.885 92.9844 135.375 93.2031C135.865 93.4219 136.422 93.5312 137.047 93.5312C137.818 93.5312 138.552 93.3854 139.25 93.0938C139.948 92.7917 140.552 92.3229 141.062 91.6875L143.344 94.2969C143 94.7969 142.516 95.2812 141.891 95.75C141.276 96.2083 140.536 96.5833 139.672 96.875C138.807 97.1667 137.828 97.3125 136.734 97.3125ZM151.031 84.0312V97H146.156V80.0938H150.734L151.031 84.0312ZM156.078 79.9688L156 84.5156C155.792 84.4844 155.521 84.4583 155.188 84.4375C154.854 84.4062 154.568 84.3906 154.328 84.3906C153.703 84.3906 153.161 84.4688 152.703 84.625C152.255 84.7708 151.88 84.9896 151.578 85.2812C151.286 85.5729 151.068 85.9375 150.922 86.375C150.776 86.8021 150.703 87.2969 150.703 87.8594L149.781 87.4062C149.781 86.2917 149.891 85.2708 150.109 84.3438C150.328 83.4167 150.646 82.6146 151.062 81.9375C151.479 81.25 151.99 80.7188 152.594 80.3438C153.198 79.9688 153.885 79.7812 154.656 79.7812C154.906 79.7812 155.161 79.7969 155.422 79.8281C155.682 79.8594 155.901 79.9062 156.078 79.9688ZM167.078 92.2969C167.078 91.9844 166.979 91.7083 166.781 91.4688C166.594 91.2292 166.25 91.0104 165.75 90.8125C165.26 90.6146 164.568 90.4167 163.672 90.2188C162.828 90.0417 162.042 89.8125 161.312 89.5312C160.583 89.2396 159.948 88.8906 159.406 88.4844C158.865 88.0677 158.443 87.5781 158.141 87.0156C157.839 86.4427 157.688 85.7917 157.688 85.0625C157.688 84.3542 157.839 83.6823 158.141 83.0469C158.453 82.4115 158.901 81.849 159.484 81.3594C160.078 80.8698 160.797 80.4844 161.641 80.2031C162.495 79.9219 163.464 79.7812 164.547 79.7812C166.036 79.7812 167.323 80.0156 168.406 80.4844C169.49 80.9427 170.323 81.5885 170.906 82.4219C171.49 83.2448 171.781 84.1875 171.781 85.25H166.906C166.906 84.8125 166.823 84.4323 166.656 84.1094C166.49 83.7865 166.234 83.5365 165.891 83.3594C165.547 83.1719 165.094 83.0781 164.531 83.0781C164.094 83.0781 163.708 83.1562 163.375 83.3125C163.052 83.4583 162.797 83.6615 162.609 83.9219C162.432 84.1823 162.344 84.4844 162.344 84.8281C162.344 85.0677 162.396 85.2865 162.5 85.4844C162.615 85.6719 162.786 85.849 163.016 86.0156C163.255 86.1719 163.562 86.3125 163.938 86.4375C164.323 86.5625 164.792 86.6823 165.344 86.7969C166.521 87.0156 167.594 87.3229 168.562 87.7188C169.542 88.1146 170.323 88.6615 170.906 89.3594C171.5 90.0573 171.797 90.9792 171.797 92.125C171.797 92.875 171.625 93.5625 171.281 94.1875C170.948 94.8125 170.464 95.3594 169.828 95.8281C169.193 96.2969 168.432 96.6615 167.547 96.9219C166.661 97.1823 165.661 97.3125 164.547 97.3125C162.953 97.3125 161.604 97.026 160.5 96.4531C159.396 95.8802 158.562 95.1615 158 94.2969C157.448 93.4219 157.172 92.526 157.172 91.6094H161.75C161.771 92.1719 161.911 92.6302 162.172 92.9844C162.443 93.3385 162.792 93.599 163.219 93.7656C163.646 93.9219 164.125 94 164.656 94C165.188 94 165.63 93.9271 165.984 93.7812C166.339 93.6354 166.609 93.4375 166.797 93.1875C166.984 92.9271 167.078 92.6302 167.078 92.2969ZM179.656 80.0938V97H174.766V80.0938H179.656ZM174.469 75.7188C174.469 75.0104 174.719 74.4323 175.219 73.9844C175.719 73.526 176.375 73.2969 177.188 73.2969C178 73.2969 178.656 73.526 179.156 73.9844C179.667 74.4323 179.922 75.0104 179.922 75.7188C179.922 76.4167 179.667 76.9948 179.156 77.4531C178.656 77.901 178 78.125 177.188 78.125C176.375 78.125 175.719 77.901 175.219 77.4531C174.719 76.9948 174.469 76.4167 174.469 75.7188ZM182.469 88.7188V88.3906C182.469 87.151 182.646 86.0104 183 84.9688C183.354 83.9167 183.875 83.0052 184.562 82.2344C185.25 81.4635 186.094 80.8646 187.094 80.4375C188.094 80 189.24 79.7812 190.531 79.7812C191.844 79.7812 193 80 194 80.4375C195.01 80.8646 195.859 81.4635 196.547 82.2344C197.234 83.0052 197.755 83.9167 198.109 84.9688C198.464 86.0104 198.641 87.151 198.641 88.3906V88.7188C198.641 89.9479 198.464 91.0885 198.109 92.1406C197.755 93.1823 197.234 94.0938 196.547 94.875C195.859 95.6458 195.016 96.2448 194.016 96.6719C193.016 97.099 191.865 97.3125 190.562 97.3125C189.271 97.3125 188.12 97.099 187.109 96.6719C186.099 96.2448 185.25 95.6458 184.562 94.875C183.875 94.0938 183.354 93.1823 183 92.1406C182.646 91.0885 182.469 89.9479 182.469 88.7188ZM187.359 88.3906V88.7188C187.359 89.3854 187.411 90.0104 187.516 90.5938C187.63 91.1771 187.812 91.6875 188.062 92.125C188.312 92.5625 188.641 92.9062 189.047 93.1562C189.464 93.3958 189.969 93.5156 190.562 93.5156C191.156 93.5156 191.656 93.3958 192.062 93.1562C192.469 92.9062 192.797 92.5625 193.047 92.125C193.297 91.6875 193.474 91.1771 193.578 90.5938C193.693 90.0104 193.75 89.3854 193.75 88.7188V88.3906C193.75 87.7344 193.693 87.1198 193.578 86.5469C193.474 85.9635 193.297 85.4479 193.047 85C192.797 84.5521 192.464 84.2031 192.047 83.9531C191.641 83.7031 191.135 83.5781 190.531 83.5781C189.948 83.5781 189.453 83.7031 189.047 83.9531C188.641 84.2031 188.312 84.5521 188.062 85C187.812 85.4479 187.63 85.9635 187.516 86.5469C187.411 87.1198 187.359 87.7344 187.359 88.3906ZM205.984 83.7031V97H201.094V80.0938H205.688L205.984 83.7031ZM205.344 87.9531L204.125 87.9844C204.125 86.7135 204.281 85.5729 204.594 84.5625C204.906 83.5521 205.349 82.6927 205.922 81.9844C206.505 81.2656 207.198 80.7188 208 80.3438C208.812 79.9688 209.708 79.7812 210.688 79.7812C211.479 79.7812 212.203 79.8958 212.859 80.125C213.516 80.3542 214.078 80.724 214.547 81.2344C215.026 81.7344 215.391 82.401 215.641 83.2344C215.891 84.0573 216.016 85.0729 216.016 86.2812V97H211.109V86.2656C211.109 85.5573 211.01 85.0104 210.812 84.625C210.615 84.2396 210.323 83.9688 209.938 83.8125C209.562 83.6562 209.104 83.5781 208.562 83.5781C207.99 83.5781 207.5 83.6927 207.094 83.9219C206.688 84.1406 206.354 84.4479 206.094 84.8438C205.833 85.2396 205.641 85.7031 205.516 86.2344C205.401 86.7656 205.344 87.3385 205.344 87.9531ZM238.344 74.2344V97H233.453V79.7969L228.172 81.4062V77.625L237.859 74.2344H238.344Z" fill="black"/>
<g filter="url(#filter2_d_8_218)">
<rect x="351" y="68" width="271" height="302" rx="10" fill="#F1F1F4"/>
<rect x="351.5" y="68.5" width="270" height="301" rx="9.5" stroke="black"/>
</g>
<path d="M427.531 93.5469L431.062 80.0938H436.188L430.578 97H427.5L427.531 93.5469ZM425.25 80.0938L428.766 93.5625L428.797 97H425.719L420.109 80.0938H425.25ZM445.734 97.3125C444.391 97.3125 443.188 97.099 442.125 96.6719C441.062 96.2448 440.161 95.6562 439.422 94.9062C438.693 94.1458 438.135 93.2708 437.75 92.2812C437.365 91.2917 437.172 90.2344 437.172 89.1094V88.5156C437.172 87.2552 437.349 86.0938 437.703 85.0312C438.057 83.9688 438.573 83.0469 439.25 82.2656C439.938 81.474 440.781 80.8646 441.781 80.4375C442.781 80 443.922 79.7812 445.203 79.7812C446.401 79.7812 447.469 79.9792 448.406 80.375C449.344 80.7604 450.135 81.3177 450.781 82.0469C451.427 82.7656 451.917 83.6354 452.25 84.6562C452.594 85.6667 452.766 86.8021 452.766 88.0625V90.0625H439.141V86.9219H447.984V86.5469C447.984 85.9531 447.875 85.4323 447.656 84.9844C447.448 84.5365 447.135 84.1927 446.719 83.9531C446.312 83.7031 445.797 83.5781 445.172 83.5781C444.578 83.5781 444.083 83.7031 443.688 83.9531C443.292 84.2031 442.974 84.5573 442.734 85.0156C442.505 85.4635 442.339 85.9896 442.234 86.5938C442.13 87.1875 442.078 87.8281 442.078 88.5156V89.1094C442.078 89.7656 442.167 90.3646 442.344 90.9062C442.521 91.4479 442.781 91.9115 443.125 92.2969C443.469 92.6823 443.885 92.9844 444.375 93.2031C444.865 93.4219 445.422 93.5312 446.047 93.5312C446.818 93.5312 447.552 93.3854 448.25 93.0938C448.948 92.7917 449.552 92.3229 450.062 91.6875L452.344 94.2969C452 94.7969 451.516 95.2812 450.891 95.75C450.276 96.2083 449.536 96.5833 448.672 96.875C447.807 97.1667 446.828 97.3125 445.734 97.3125ZM460.031 84.0312V97H455.156V80.0938H459.734L460.031 84.0312ZM465.078 79.9688L465 84.5156C464.792 84.4844 464.521 84.4583 464.188 84.4375C463.854 84.4062 463.568 84.3906 463.328 84.3906C462.703 84.3906 462.161 84.4688 461.703 84.625C461.255 84.7708 460.88 84.9896 460.578 85.2812C460.286 85.5729 460.068 85.9375 459.922 86.375C459.776 86.8021 459.703 87.2969 459.703 87.8594L458.781 87.4062C458.781 86.2917 458.891 85.2708 459.109 84.3438C459.328 83.4167 459.646 82.6146 460.062 81.9375C460.479 81.25 460.99 80.7188 461.594 80.3438C462.198 79.9688 462.885 79.7812 463.656 79.7812C463.906 79.7812 464.161 79.7969 464.422 79.8281C464.682 79.8594 464.901 79.9062 465.078 79.9688ZM476.078 92.2969C476.078 91.9844 475.979 91.7083 475.781 91.4688C475.594 91.2292 475.25 91.0104 474.75 90.8125C474.26 90.6146 473.568 90.4167 472.672 90.2188C471.828 90.0417 471.042 89.8125 470.312 89.5312C469.583 89.2396 468.948 88.8906 468.406 88.4844C467.865 88.0677 467.443 87.5781 467.141 87.0156C466.839 86.4427 466.688 85.7917 466.688 85.0625C466.688 84.3542 466.839 83.6823 467.141 83.0469C467.453 82.4115 467.901 81.849 468.484 81.3594C469.078 80.8698 469.797 80.4844 470.641 80.2031C471.495 79.9219 472.464 79.7812 473.547 79.7812C475.036 79.7812 476.323 80.0156 477.406 80.4844C478.49 80.9427 479.323 81.5885 479.906 82.4219C480.49 83.2448 480.781 84.1875 480.781 85.25H475.906C475.906 84.8125 475.823 84.4323 475.656 84.1094C475.49 83.7865 475.234 83.5365 474.891 83.3594C474.547 83.1719 474.094 83.0781 473.531 83.0781C473.094 83.0781 472.708 83.1562 472.375 83.3125C472.052 83.4583 471.797 83.6615 471.609 83.9219C471.432 84.1823 471.344 84.4844 471.344 84.8281C471.344 85.0677 471.396 85.2865 471.5 85.4844C471.615 85.6719 471.786 85.849 472.016 86.0156C472.255 86.1719 472.562 86.3125 472.938 86.4375C473.323 86.5625 473.792 86.6823 474.344 86.7969C475.521 87.0156 476.594 87.3229 477.562 87.7188C478.542 88.1146 479.323 88.6615 479.906 89.3594C480.5 90.0573 480.797 90.9792 480.797 92.125C480.797 92.875 480.625 93.5625 480.281 94.1875C479.948 94.8125 479.464 95.3594 478.828 95.8281C478.193 96.2969 477.432 96.6615 476.547 96.9219C475.661 97.1823 474.661 97.3125 473.547 97.3125C471.953 97.3125 470.604 97.026 469.5 96.4531C468.396 95.8802 467.562 95.1615 467 94.2969C466.448 93.4219 466.172 92.526 466.172 91.6094H470.75C470.771 92.1719 470.911 92.6302 471.172 92.9844C471.443 93.3385 471.792 93.599 472.219 93.7656C472.646 93.9219 473.125 94 473.656 94C474.188 94 474.63 93.9271 474.984 93.7812C475.339 93.6354 475.609 93.4375 475.797 93.1875C475.984 92.9271 476.078 92.6302 476.078 92.2969ZM488.656 80.0938V97H483.766V80.0938H488.656ZM483.469 75.7188C483.469 75.0104 483.719 74.4323 484.219 73.9844C484.719 73.526 485.375 73.2969 486.188 73.2969C487 73.2969 487.656 73.526 488.156 73.9844C488.667 74.4323 488.922 75.0104 488.922 75.7188C488.922 76.4167 488.667 76.9948 488.156 77.4531C487.656 77.901 487 78.125 486.188 78.125C485.375 78.125 484.719 77.901 484.219 77.4531C483.719 76.9948 483.469 76.4167 483.469 75.7188ZM491.469 88.7188V88.3906C491.469 87.151 491.646 86.0104 492 84.9688C492.354 83.9167 492.875 83.0052 493.562 82.2344C494.25 81.4635 495.094 80.8646 496.094 80.4375C497.094 80 498.24 79.7812 499.531 79.7812C500.844 79.7812 502 80 503 80.4375C504.01 80.8646 504.859 81.4635 505.547 82.2344C506.234 83.0052 506.755 83.9167 507.109 84.9688C507.464 86.0104 507.641 87.151 507.641 88.3906V88.7188C507.641 89.9479 507.464 91.0885 507.109 92.1406C506.755 93.1823 506.234 94.0938 505.547 94.875C504.859 95.6458 504.016 96.2448 503.016 96.6719C502.016 97.099 500.865 97.3125 499.562 97.3125C498.271 97.3125 497.12 97.099 496.109 96.6719C495.099 96.2448 494.25 95.6458 493.562 94.875C492.875 94.0938 492.354 93.1823 492 92.1406C491.646 91.0885 491.469 89.9479 491.469 88.7188ZM496.359 88.3906V88.7188C496.359 89.3854 496.411 90.0104 496.516 90.5938C496.63 91.1771 496.812 91.6875 497.062 92.125C497.312 92.5625 497.641 92.9062 498.047 93.1562C498.464 93.3958 498.969 93.5156 499.562 93.5156C500.156 93.5156 500.656 93.3958 501.062 93.1562C501.469 92.9062 501.797 92.5625 502.047 92.125C502.297 91.6875 502.474 91.1771 502.578 90.5938C502.693 90.0104 502.75 89.3854 502.75 88.7188V88.3906C502.75 87.7344 502.693 87.1198 502.578 86.5469C502.474 85.9635 502.297 85.4479 502.047 85C501.797 84.5521 501.464 84.2031 501.047 83.9531C500.641 83.7031 500.135 83.5781 499.531 83.5781C498.948 83.5781 498.453 83.7031 498.047 83.9531C497.641 84.2031 497.312 84.5521 497.062 85C496.812 85.4479 496.63 85.9635 496.516 86.5469C496.411 87.1198 496.359 87.7344 496.359 88.3906ZM514.984 83.7031V97H510.094V80.0938H514.688L514.984 83.7031ZM514.344 87.9531L513.125 87.9844C513.125 86.7135 513.281 85.5729 513.594 84.5625C513.906 83.5521 514.349 82.6927 514.922 81.9844C515.505 81.2656 516.198 80.7188 517 80.3438C517.812 79.9688 518.708 79.7812 519.688 79.7812C520.479 79.7812 521.203 79.8958 521.859 80.125C522.516 80.3542 523.078 80.724 523.547 81.2344C524.026 81.7344 524.391 82.401 524.641 83.2344C524.891 84.0573 525.016 85.0729 525.016 86.2812V97H520.109V86.2656C520.109 85.5573 520.01 85.0104 519.812 84.625C519.615 84.2396 519.323 83.9688 518.938 83.8125C518.562 83.6562 518.104 83.5781 517.562 83.5781C516.99 83.5781 516.5 83.6927 516.094 83.9219C515.688 84.1406 515.354 84.4479 515.094 84.8438C514.833 85.2396 514.641 85.7031 514.516 86.2344C514.401 86.7656 514.344 87.3385 514.344 87.9531ZM551.75 93.2031V97H536.031V93.7812L543.375 86C544.062 85.2083 544.609 84.5104 545.016 83.9062C545.432 83.3021 545.734 82.7552 545.922 82.2656C546.109 81.7656 546.203 81.3073 546.203 80.8906C546.203 80.2135 546.094 79.6406 545.875 79.1719C545.667 78.7031 545.359 78.3438 544.953 78.0938C544.547 77.8438 544.052 77.7188 543.469 77.7188C542.844 77.7188 542.307 77.8802 541.859 78.2031C541.411 78.526 541.068 78.974 540.828 79.5469C540.589 80.1094 540.469 80.75 540.469 81.4688H535.562C535.562 80.0833 535.896 78.8229 536.562 77.6875C537.229 76.5417 538.161 75.6302 539.359 74.9531C540.557 74.2656 541.958 73.9219 543.562 73.9219C545.208 73.9219 546.589 74.1823 547.703 74.7031C548.818 75.224 549.661 75.9688 550.234 76.9375C550.807 77.9062 551.094 79.0729 551.094 80.4375C551.094 81.2083 550.969 81.9531 550.719 82.6719C550.479 83.3906 550.13 84.1042 549.672 84.8125C549.214 85.5208 548.661 86.2448 548.016 86.9844C547.37 87.7135 546.641 88.4844 545.828 89.2969L542.391 93.2031H551.75Z" fill="black"/>
<g filter="url(#filter3_d_8_218)">
<rect x="660" y="68" width="271" height="302" rx="10" fill="#CFD3F5"/>
<rect x="660.5" y="68.5" width="270" height="301" rx="9.5" stroke="black"/>
</g>
<path d="M731.031 74.25V97H725.938V74.25H731.031ZM744.625 74.25L735.719 85.625L730.531 91.25L729.609 86.5156L733.031 81.6094L738.375 74.25H744.625ZM738.719 97L732.438 86.6094L736.312 83.5938L744.75 97H738.719ZM753.656 97.3125C752.312 97.3125 751.109 97.099 750.047 96.6719C748.984 96.2448 748.083 95.6562 747.344 94.9062C746.615 94.1458 746.057 93.2708 745.672 92.2812C745.286 91.2917 745.094 90.2344 745.094 89.1094V88.5156C745.094 87.2552 745.271 86.0938 745.625 85.0312C745.979 83.9688 746.495 83.0469 747.172 82.2656C747.859 81.474 748.703 80.8646 749.703 80.4375C750.703 80 751.844 79.7812 753.125 79.7812C754.323 79.7812 755.391 79.9792 756.328 80.375C757.266 80.7604 758.057 81.3177 758.703 82.0469C759.349 82.7656 759.839 83.6354 760.172 84.6562C760.516 85.6667 760.688 86.8021 760.688 88.0625V90.0625H747.062V86.9219H755.906V86.5469C755.906 85.9531 755.797 85.4323 755.578 84.9844C755.37 84.5365 755.057 84.1927 754.641 83.9531C754.234 83.7031 753.719 83.5781 753.094 83.5781C752.5 83.5781 752.005 83.7031 751.609 83.9531C751.214 84.2031 750.896 84.5573 750.656 85.0156C750.427 85.4635 750.26 85.9896 750.156 86.5938C750.052 87.1875 750 87.8281 750 88.5156V89.1094C750 89.7656 750.089 90.3646 750.266 90.9062C750.443 91.4479 750.703 91.9115 751.047 92.2969C751.391 92.6823 751.807 92.9844 752.297 93.2031C752.786 93.4219 753.344 93.5312 753.969 93.5312C754.74 93.5312 755.474 93.3854 756.172 93.0938C756.87 92.7917 757.474 92.3229 757.984 91.6875L760.266 94.2969C759.922 94.7969 759.438 95.2812 758.812 95.75C758.198 96.2083 757.458 96.5833 756.594 96.875C755.729 97.1667 754.75 97.3125 753.656 97.3125ZM767.938 95.0469L772.359 80.0938H777.609L770.812 99.5312C770.667 99.9583 770.469 100.417 770.219 100.906C769.979 101.396 769.651 101.865 769.234 102.312C768.828 102.76 768.307 103.125 767.672 103.406C767.036 103.688 766.255 103.828 765.328 103.828C764.859 103.828 764.495 103.802 764.234 103.75C763.984 103.708 763.651 103.635 763.234 103.531L763.219 99.9844C763.354 99.9844 763.474 99.9844 763.578 99.9844C763.693 99.9948 763.807 100 763.922 100C764.505 100 764.974 99.9375 765.328 99.8125C765.693 99.6875 765.974 99.5 766.172 99.25C766.38 99.0104 766.547 98.7031 766.672 98.3281L767.938 95.0469ZM766.453 80.0938L769.953 92.125L770.547 97.2969L767.25 97.4688L761.203 80.0938H766.453ZM795.812 91.9531L800.875 74.25H806.547L798.75 97H795.047L795.812 91.9531ZM791.203 74.25L796.25 91.9531L797.047 97H793.297L785.547 74.25H791.203ZM816.422 92.9688V85.7188C816.422 85.2083 816.344 84.7708 816.188 84.4062C816.031 84.0417 815.786 83.7552 815.453 83.5469C815.12 83.3385 814.688 83.2344 814.156 83.2344C813.708 83.2344 813.318 83.3125 812.984 83.4688C812.661 83.625 812.411 83.849 812.234 84.1406C812.068 84.4323 811.984 84.7917 811.984 85.2188H807.109C807.109 84.4583 807.281 83.75 807.625 83.0938C807.969 82.4375 808.458 81.8594 809.094 81.3594C809.74 80.8594 810.51 80.474 811.406 80.2031C812.302 79.9219 813.307 79.7812 814.422 79.7812C815.745 79.7812 816.922 80.0052 817.953 80.4531C818.995 80.8906 819.818 81.5521 820.422 82.4375C821.026 83.3125 821.328 84.4167 821.328 85.75V92.8281C821.328 93.849 821.385 94.651 821.5 95.2344C821.625 95.8073 821.802 96.3073 822.031 96.7344V97H817.109C816.88 96.5104 816.708 95.9062 816.594 95.1875C816.479 94.4583 816.422 93.7188 816.422 92.9688ZM817.031 86.6875L817.062 89.375H814.641C814.099 89.375 813.63 89.4427 813.234 89.5781C812.849 89.7135 812.536 89.901 812.297 90.1406C812.057 90.3698 811.88 90.6406 811.766 90.9531C811.661 91.2552 811.609 91.5885 811.609 91.9531C811.609 92.2969 811.693 92.6094 811.859 92.8906C812.026 93.1615 812.255 93.375 812.547 93.5312C812.839 93.6875 813.177 93.7656 813.562 93.7656C814.198 93.7656 814.74 93.6406 815.188 93.3906C815.646 93.1406 816 92.8385 816.25 92.4844C816.5 92.1198 816.625 91.7812 816.625 91.4688L817.797 93.5C817.609 93.9167 817.38 94.349 817.109 94.7969C816.839 95.2344 816.495 95.6458 816.078 96.0312C815.661 96.4062 815.156 96.7135 814.562 96.9531C813.979 97.1927 813.276 97.3125 812.453 97.3125C811.391 97.3125 810.427 97.099 809.562 96.6719C808.698 96.2344 808.005 95.6354 807.484 94.875C806.974 94.1146 806.719 93.2396 806.719 92.25C806.719 91.3646 806.88 90.5781 807.203 89.8906C807.526 89.2031 808.01 88.6198 808.656 88.1406C809.312 87.6615 810.135 87.3021 811.125 87.0625C812.115 86.8125 813.271 86.6875 814.594 86.6875H817.031ZM829.672 73V97H824.781V73H829.672ZM843.109 92.9219V80.0938H848.016V97H843.422L843.109 92.9219ZM843.625 89.4688L844.969 89.4375C844.969 90.5729 844.833 91.6198 844.562 92.5781C844.302 93.5365 843.906 94.3698 843.375 95.0781C842.854 95.7865 842.203 96.3385 841.422 96.7344C840.651 97.1198 839.75 97.3125 838.719 97.3125C837.885 97.3125 837.12 97.1979 836.422 96.9688C835.734 96.7292 835.141 96.3594 834.641 95.8594C834.141 95.349 833.755 94.6979 833.484 93.9062C833.214 93.1042 833.078 92.1458 833.078 91.0312V80.0938H837.953V91.0625C837.953 91.5 838.005 91.875 838.109 92.1875C838.224 92.4896 838.375 92.7396 838.562 92.9375C838.76 93.1354 839 93.2812 839.281 93.375C839.573 93.4688 839.891 93.5156 840.234 93.5156C841.099 93.5156 841.776 93.3385 842.266 92.9844C842.766 92.6198 843.115 92.1354 843.312 91.5312C843.521 90.9167 843.625 90.2292 843.625 89.4688ZM859.156 97.3125C857.812 97.3125 856.609 97.099 855.547 96.6719C854.484 96.2448 853.583 95.6562 852.844 94.9062C852.115 94.1458 851.557 93.2708 851.172 92.2812C850.786 91.2917 850.594 90.2344 850.594 89.1094V88.5156C850.594 87.2552 850.771 86.0938 851.125 85.0312C851.479 83.9688 851.995 83.0469 852.672 82.2656C853.359 81.474 854.203 80.8646 855.203 80.4375C856.203 80 857.344 79.7812 858.625 79.7812C859.823 79.7812 860.891 79.9792 861.828 80.375C862.766 80.7604 863.557 81.3177 864.203 82.0469C864.849 82.7656 865.339 83.6354 865.672 84.6562C866.016 85.6667 866.188 86.8021 866.188 88.0625V90.0625H852.562V86.9219H861.406V86.5469C861.406 85.9531 861.297 85.4323 861.078 84.9844C860.87 84.5365 860.557 84.1927 860.141 83.9531C859.734 83.7031 859.219 83.5781 858.594 83.5781C858 83.5781 857.505 83.7031 857.109 83.9531C856.714 84.2031 856.396 84.5573 856.156 85.0156C855.927 85.4635 855.76 85.9896 855.656 86.5938C855.552 87.1875 855.5 87.8281 855.5 88.5156V89.1094C855.5 89.7656 855.589 90.3646 855.766 90.9062C855.943 91.4479 856.203 91.9115 856.547 92.2969C856.891 92.6823 857.307 92.9844 857.797 93.2031C858.286 93.4219 858.844 93.5312 859.469 93.5312C860.24 93.5312 860.974 93.3854 861.672 93.0938C862.37 92.7917 862.974 92.3229 863.484 91.6875L865.766 94.2969C865.422 94.7969 864.938 95.2812 864.312 95.75C863.698 96.2083 862.958 96.5833 862.094 96.875C861.229 97.1667 860.25 97.3125 859.156 97.3125Z" fill="black"/>
<g filter="url(#filter4_d_8_218)">
<rect x="54" y="122" width="249" height="103" rx="10" fill="white"/>
<rect x="54.5" y="122.5" width="248" height="102" rx="9.5" stroke="black"/>
</g>
<path d="M140.719 180.547L144.25 167.094H149.375L143.766 184H140.688L140.719 180.547ZM138.438 167.094L141.953 180.562L141.984 184H138.906L133.297 167.094H138.438ZM158.922 184.312C157.578 184.312 156.375 184.099 155.312 183.672C154.25 183.245 153.349 182.656 152.609 181.906C151.88 181.146 151.323 180.271 150.938 179.281C150.552 178.292 150.359 177.234 150.359 176.109V175.516C150.359 174.255 150.536 173.094 150.891 172.031C151.245 170.969 151.76 170.047 152.438 169.266C153.125 168.474 153.969 167.865 154.969 167.438C155.969 167 157.109 166.781 158.391 166.781C159.589 166.781 160.656 166.979 161.594 167.375C162.531 167.76 163.323 168.318 163.969 169.047C164.615 169.766 165.104 170.635 165.438 171.656C165.781 172.667 165.953 173.802 165.953 175.062V177.062H152.328V173.922H161.172V173.547C161.172 172.953 161.062 172.432 160.844 171.984C160.635 171.536 160.323 171.193 159.906 170.953C159.5 170.703 158.984 170.578 158.359 170.578C157.766 170.578 157.271 170.703 156.875 170.953C156.479 171.203 156.161 171.557 155.922 172.016C155.693 172.464 155.526 172.99 155.422 173.594C155.318 174.188 155.266 174.828 155.266 175.516V176.109C155.266 176.766 155.354 177.365 155.531 177.906C155.708 178.448 155.969 178.911 156.312 179.297C156.656 179.682 157.073 179.984 157.562 180.203C158.052 180.422 158.609 180.531 159.234 180.531C160.005 180.531 160.74 180.385 161.438 180.094C162.135 179.792 162.74 179.323 163.25 178.688L165.531 181.297C165.188 181.797 164.703 182.281 164.078 182.75C163.464 183.208 162.724 183.583 161.859 183.875C160.995 184.167 160.016 184.312 158.922 184.312ZM175.391 180.516C175.911 180.516 176.365 180.417 176.75 180.219C177.135 180.021 177.432 179.745 177.641 179.391C177.859 179.026 177.969 178.589 177.969 178.078H182.562C182.562 179.307 182.245 180.391 181.609 181.328C180.984 182.266 180.141 183 179.078 183.531C178.016 184.052 176.818 184.312 175.484 184.312C174.172 184.312 173.026 184.099 172.047 183.672C171.068 183.234 170.25 182.625 169.594 181.844C168.938 181.062 168.443 180.156 168.109 179.125C167.786 178.083 167.625 176.958 167.625 175.75V175.344C167.625 174.146 167.786 173.026 168.109 171.984C168.443 170.943 168.938 170.031 169.594 169.25C170.25 168.469 171.062 167.865 172.031 167.438C173.01 167 174.156 166.781 175.469 166.781C176.854 166.781 178.078 167.047 179.141 167.578C180.214 168.109 181.052 168.875 181.656 169.875C182.26 170.865 182.562 172.057 182.562 173.453H177.969C177.969 172.911 177.87 172.427 177.672 172C177.484 171.562 177.193 171.219 176.797 170.969C176.411 170.708 175.932 170.578 175.359 170.578C174.766 170.578 174.276 170.708 173.891 170.969C173.516 171.219 173.229 171.568 173.031 172.016C172.833 172.464 172.698 172.974 172.625 173.547C172.552 174.109 172.516 174.708 172.516 175.344V175.75C172.516 176.396 172.552 177.01 172.625 177.594C172.698 178.167 172.833 178.672 173.031 179.109C173.24 179.547 173.531 179.891 173.906 180.141C174.281 180.391 174.776 180.516 175.391 180.516ZM193.578 167.094V170.516H183.547V167.094H193.578ZM185.844 162.906H190.734V178.703C190.734 179.172 190.792 179.531 190.906 179.781C191.021 180.031 191.208 180.208 191.469 180.312C191.729 180.406 192.062 180.453 192.469 180.453C192.76 180.453 193.01 180.443 193.219 180.422C193.427 180.401 193.62 180.375 193.797 180.344V183.875C193.38 184.01 192.938 184.115 192.469 184.188C192 184.271 191.49 184.312 190.938 184.312C189.885 184.312 188.974 184.141 188.203 183.797C187.443 183.453 186.859 182.911 186.453 182.172C186.047 181.422 185.844 180.448 185.844 179.25V162.906ZM194.781 175.719V175.391C194.781 174.151 194.958 173.01 195.312 171.969C195.667 170.917 196.188 170.005 196.875 169.234C197.562 168.464 198.406 167.865 199.406 167.438C200.406 167 201.552 166.781 202.844 166.781C204.156 166.781 205.312 167 206.312 167.438C207.323 167.865 208.172 168.464 208.859 169.234C209.547 170.005 210.068 170.917 210.422 171.969C210.776 173.01 210.953 174.151 210.953 175.391V175.719C210.953 176.948 210.776 178.089 210.422 179.141C210.068 180.182 209.547 181.094 208.859 181.875C208.172 182.646 207.328 183.245 206.328 183.672C205.328 184.099 204.177 184.312 202.875 184.312C201.583 184.312 200.432 184.099 199.422 183.672C198.411 183.245 197.562 182.646 196.875 181.875C196.188 181.094 195.667 180.182 195.312 179.141C194.958 178.089 194.781 176.948 194.781 175.719ZM199.672 175.391V175.719C199.672 176.385 199.724 177.01 199.828 177.594C199.943 178.177 200.125 178.688 200.375 179.125C200.625 179.562 200.953 179.906 201.359 180.156C201.776 180.396 202.281 180.516 202.875 180.516C203.469 180.516 203.969 180.396 204.375 180.156C204.781 179.906 205.109 179.562 205.359 179.125C205.609 178.688 205.786 178.177 205.891 177.594C206.005 177.01 206.062 176.385 206.062 175.719V175.391C206.062 174.734 206.005 174.12 205.891 173.547C205.786 172.964 205.609 172.448 205.359 172C205.109 171.552 204.776 171.203 204.359 170.953C203.953 170.703 203.448 170.578 202.844 170.578C202.26 170.578 201.766 170.703 201.359 170.953C200.953 171.203 200.625 171.552 200.375 172C200.125 172.448 199.943 172.964 199.828 173.547C199.724 174.12 199.672 174.734 199.672 175.391ZM218.406 171.031V184H213.531V167.094H218.109L218.406 171.031ZM223.453 166.969L223.375 171.516C223.167 171.484 222.896 171.458 222.562 171.438C222.229 171.406 221.943 171.391 221.703 171.391C221.078 171.391 220.536 171.469 220.078 171.625C219.63 171.771 219.255 171.99 218.953 172.281C218.661 172.573 218.443 172.938 218.297 173.375C218.151 173.802 218.078 174.297 218.078 174.859L217.156 174.406C217.156 173.292 217.266 172.271 217.484 171.344C217.703 170.417 218.021 169.615 218.438 168.938C218.854 168.25 219.365 167.719 219.969 167.344C220.573 166.969 221.26 166.781 222.031 166.781C222.281 166.781 222.536 166.797 222.797 166.828C223.057 166.859 223.276 166.906 223.453 166.969Z" fill="black"/>
<g filter="url(#filter5_d_8_218)">
<rect x="362" y="122" width="249" height="103" rx="10" fill="white"/>
<rect x="362.5" y="122.5" width="248" height="102" rx="9.5" stroke="black"/>
</g>
<path d="M448.719 180.547L452.25 167.094H457.375L451.766 184H448.688L448.719 180.547ZM446.438 167.094L449.953 180.562L449.984 184H446.906L441.297 167.094H446.438ZM466.922 184.312C465.578 184.312 464.375 184.099 463.312 183.672C462.25 183.245 461.349 182.656 460.609 181.906C459.88 181.146 459.323 180.271 458.938 179.281C458.552 178.292 458.359 177.234 458.359 176.109V175.516C458.359 174.255 458.536 173.094 458.891 172.031C459.245 170.969 459.76 170.047 460.438 169.266C461.125 168.474 461.969 167.865 462.969 167.438C463.969 167 465.109 166.781 466.391 166.781C467.589 166.781 468.656 166.979 469.594 167.375C470.531 167.76 471.323 168.318 471.969 169.047C472.615 169.766 473.104 170.635 473.438 171.656C473.781 172.667 473.953 173.802 473.953 175.062V177.062H460.328V173.922H469.172V173.547C469.172 172.953 469.062 172.432 468.844 171.984C468.635 171.536 468.323 171.193 467.906 170.953C467.5 170.703 466.984 170.578 466.359 170.578C465.766 170.578 465.271 170.703 464.875 170.953C464.479 171.203 464.161 171.557 463.922 172.016C463.693 172.464 463.526 172.99 463.422 173.594C463.318 174.188 463.266 174.828 463.266 175.516V176.109C463.266 176.766 463.354 177.365 463.531 177.906C463.708 178.448 463.969 178.911 464.312 179.297C464.656 179.682 465.073 179.984 465.562 180.203C466.052 180.422 466.609 180.531 467.234 180.531C468.005 180.531 468.74 180.385 469.438 180.094C470.135 179.792 470.74 179.323 471.25 178.688L473.531 181.297C473.188 181.797 472.703 182.281 472.078 182.75C471.464 183.208 470.724 183.583 469.859 183.875C468.995 184.167 468.016 184.312 466.922 184.312ZM483.391 180.516C483.911 180.516 484.365 180.417 484.75 180.219C485.135 180.021 485.432 179.745 485.641 179.391C485.859 179.026 485.969 178.589 485.969 178.078H490.562C490.562 179.307 490.245 180.391 489.609 181.328C488.984 182.266 488.141 183 487.078 183.531C486.016 184.052 484.818 184.312 483.484 184.312C482.172 184.312 481.026 184.099 480.047 183.672C479.068 183.234 478.25 182.625 477.594 181.844C476.938 181.062 476.443 180.156 476.109 179.125C475.786 178.083 475.625 176.958 475.625 175.75V175.344C475.625 174.146 475.786 173.026 476.109 171.984C476.443 170.943 476.938 170.031 477.594 169.25C478.25 168.469 479.062 167.865 480.031 167.438C481.01 167 482.156 166.781 483.469 166.781C484.854 166.781 486.078 167.047 487.141 167.578C488.214 168.109 489.052 168.875 489.656 169.875C490.26 170.865 490.562 172.057 490.562 173.453H485.969C485.969 172.911 485.87 172.427 485.672 172C485.484 171.562 485.193 171.219 484.797 170.969C484.411 170.708 483.932 170.578 483.359 170.578C482.766 170.578 482.276 170.708 481.891 170.969C481.516 171.219 481.229 171.568 481.031 172.016C480.833 172.464 480.698 172.974 480.625 173.547C480.552 174.109 480.516 174.708 480.516 175.344V175.75C480.516 176.396 480.552 177.01 480.625 177.594C480.698 178.167 480.833 178.672 481.031 179.109C481.24 179.547 481.531 179.891 481.906 180.141C482.281 180.391 482.776 180.516 483.391 180.516ZM501.578 167.094V170.516H491.547V167.094H501.578ZM493.844 162.906H498.734V178.703C498.734 179.172 498.792 179.531 498.906 179.781C499.021 180.031 499.208 180.208 499.469 180.312C499.729 180.406 500.062 180.453 500.469 180.453C500.76 180.453 501.01 180.443 501.219 180.422C501.427 180.401 501.62 180.375 501.797 180.344V183.875C501.38 184.01 500.938 184.115 500.469 184.188C500 184.271 499.49 184.312 498.938 184.312C497.885 184.312 496.974 184.141 496.203 183.797C495.443 183.453 494.859 182.911 494.453 182.172C494.047 181.422 493.844 180.448 493.844 179.25V162.906ZM502.781 175.719V175.391C502.781 174.151 502.958 173.01 503.312 171.969C503.667 170.917 504.188 170.005 504.875 169.234C505.562 168.464 506.406 167.865 507.406 167.438C508.406 167 509.552 166.781 510.844 166.781C512.156 166.781 513.312 167 514.312 167.438C515.323 167.865 516.172 168.464 516.859 169.234C517.547 170.005 518.068 170.917 518.422 171.969C518.776 173.01 518.953 174.151 518.953 175.391V175.719C518.953 176.948 518.776 178.089 518.422 179.141C518.068 180.182 517.547 181.094 516.859 181.875C516.172 182.646 515.328 183.245 514.328 183.672C513.328 184.099 512.177 184.312 510.875 184.312C509.583 184.312 508.432 184.099 507.422 183.672C506.411 183.245 505.562 182.646 504.875 181.875C504.188 181.094 503.667 180.182 503.312 179.141C502.958 178.089 502.781 176.948 502.781 175.719ZM507.672 175.391V175.719C507.672 176.385 507.724 177.01 507.828 177.594C507.943 178.177 508.125 178.688 508.375 179.125C508.625 179.562 508.953 179.906 509.359 180.156C509.776 180.396 510.281 180.516 510.875 180.516C511.469 180.516 511.969 180.396 512.375 180.156C512.781 179.906 513.109 179.562 513.359 179.125C513.609 178.688 513.786 178.177 513.891 177.594C514.005 177.01 514.062 176.385 514.062 175.719V175.391C514.062 174.734 514.005 174.12 513.891 173.547C513.786 172.964 513.609 172.448 513.359 172C513.109 171.552 512.776 171.203 512.359 170.953C511.953 170.703 511.448 170.578 510.844 170.578C510.26 170.578 509.766 170.703 509.359 170.953C508.953 171.203 508.625 171.552 508.375 172C508.125 172.448 507.943 172.964 507.828 173.547C507.724 174.12 507.672 174.734 507.672 175.391ZM526.406 171.031V184H521.531V167.094H526.109L526.406 171.031ZM531.453 166.969L531.375 171.516C531.167 171.484 530.896 171.458 530.562 171.438C530.229 171.406 529.943 171.391 529.703 171.391C529.078 171.391 528.536 171.469 528.078 171.625C527.63 171.771 527.255 171.99 526.953 172.281C526.661 172.573 526.443 172.938 526.297 173.375C526.151 173.802 526.078 174.297 526.078 174.859L525.156 174.406C525.156 173.292 525.266 172.271 525.484 171.344C525.703 170.417 526.021 169.615 526.438 168.938C526.854 168.25 527.365 167.719 527.969 167.344C528.573 166.969 529.26 166.781 530.031 166.781C530.281 166.781 530.536 166.797 530.797 166.828C531.057 166.859 531.276 166.906 531.453 166.969Z" fill="black"/>
<g filter="url(#filter6_d_8_218)">
<rect x="671" y="122" width="249" height="103" rx="10" fill="#E4E7FE"/>
<rect x="671.5" y="122.5" width="248" height="102" rx="9.5" stroke="black"/>
</g>
<path d="M739.422 161.25V184H734.344V161.25H739.422ZM746.344 161.25V165.203H727.562V161.25H746.344ZM755.141 184.312C753.797 184.312 752.594 184.099 751.531 183.672C750.469 183.245 749.568 182.656 748.828 181.906C748.099 181.146 747.542 180.271 747.156 179.281C746.771 178.292 746.578 177.234 746.578 176.109V175.516C746.578 174.255 746.755 173.094 747.109 172.031C747.464 170.969 747.979 170.047 748.656 169.266C749.344 168.474 750.188 167.865 751.188 167.438C752.188 167 753.328 166.781 754.609 166.781C755.807 166.781 756.875 166.979 757.812 167.375C758.75 167.76 759.542 168.318 760.188 169.047C760.833 169.766 761.323 170.635 761.656 171.656C762 172.667 762.172 173.802 762.172 175.062V177.062H748.547V173.922H757.391V173.547C757.391 172.953 757.281 172.432 757.062 171.984C756.854 171.536 756.542 171.193 756.125 170.953C755.719 170.703 755.203 170.578 754.578 170.578C753.984 170.578 753.49 170.703 753.094 170.953C752.698 171.203 752.38 171.557 752.141 172.016C751.911 172.464 751.745 172.99 751.641 173.594C751.536 174.188 751.484 174.828 751.484 175.516V176.109C751.484 176.766 751.573 177.365 751.75 177.906C751.927 178.448 752.188 178.911 752.531 179.297C752.875 179.682 753.292 179.984 753.781 180.203C754.271 180.422 754.828 180.531 755.453 180.531C756.224 180.531 756.958 180.385 757.656 180.094C758.354 179.792 758.958 179.323 759.469 178.688L761.75 181.297C761.406 181.797 760.922 182.281 760.297 182.75C759.682 183.208 758.943 183.583 758.078 183.875C757.214 184.167 756.234 184.312 755.141 184.312ZM768.578 167.094L771.172 171.984L773.844 167.094H778.969L774.359 175.344L779.188 184H774.031L771.188 178.781L768.359 184H763.188L768.016 175.344L763.422 167.094H768.578ZM789.547 167.094V170.516H779.516V167.094H789.547ZM781.812 162.906H786.703V178.703C786.703 179.172 786.76 179.531 786.875 179.781C786.99 180.031 787.177 180.208 787.438 180.312C787.698 180.406 788.031 180.453 788.438 180.453C788.729 180.453 788.979 180.443 789.188 180.422C789.396 180.401 789.589 180.375 789.766 180.344V183.875C789.349 184.01 788.906 184.115 788.438 184.188C787.969 184.271 787.458 184.312 786.906 184.312C785.854 184.312 784.943 184.141 784.172 183.797C783.411 183.453 782.828 182.911 782.422 182.172C782.016 181.422 781.812 180.448 781.812 179.25V162.906ZM807.312 184H802.312L802.344 180.062H807.312C808.448 180.062 809.406 179.802 810.188 179.281C810.969 178.75 811.562 177.969 811.969 176.938C812.375 175.896 812.578 174.63 812.578 173.141V172.094C812.578 170.969 812.464 169.979 812.234 169.125C812.005 168.26 811.667 167.536 811.219 166.953C810.771 166.37 810.214 165.932 809.547 165.641C808.891 165.349 808.135 165.203 807.281 165.203H802.219V161.25H807.281C808.823 161.25 810.229 161.51 811.5 162.031C812.781 162.552 813.885 163.297 814.812 164.266C815.75 165.234 816.474 166.38 816.984 167.703C817.495 169.026 817.75 170.5 817.75 172.125V173.141C817.75 174.755 817.495 176.229 816.984 177.562C816.474 178.885 815.75 180.031 814.812 181C813.885 181.958 812.786 182.698 811.516 183.219C810.245 183.74 808.844 184 807.312 184ZM805.203 161.25V184H800.109V161.25H805.203ZM829.562 179.969V172.719C829.562 172.208 829.484 171.771 829.328 171.406C829.172 171.042 828.927 170.755 828.594 170.547C828.26 170.339 827.828 170.234 827.297 170.234C826.849 170.234 826.458 170.312 826.125 170.469C825.802 170.625 825.552 170.849 825.375 171.141C825.208 171.432 825.125 171.792 825.125 172.219H820.25C820.25 171.458 820.422 170.75 820.766 170.094C821.109 169.438 821.599 168.859 822.234 168.359C822.88 167.859 823.651 167.474 824.547 167.203C825.443 166.922 826.448 166.781 827.562 166.781C828.885 166.781 830.062 167.005 831.094 167.453C832.135 167.891 832.958 168.552 833.562 169.438C834.167 170.312 834.469 171.417 834.469 172.75V179.828C834.469 180.849 834.526 181.651 834.641 182.234C834.766 182.807 834.943 183.307 835.172 183.734V184H830.25C830.021 183.51 829.849 182.906 829.734 182.188C829.62 181.458 829.562 180.719 829.562 179.969ZM830.172 173.688L830.203 176.375H827.781C827.24 176.375 826.771 176.443 826.375 176.578C825.99 176.714 825.677 176.901 825.438 177.141C825.198 177.37 825.021 177.641 824.906 177.953C824.802 178.255 824.75 178.589 824.75 178.953C824.75 179.297 824.833 179.609 825 179.891C825.167 180.161 825.396 180.375 825.688 180.531C825.979 180.688 826.318 180.766 826.703 180.766C827.339 180.766 827.88 180.641 828.328 180.391C828.786 180.141 829.141 179.839 829.391 179.484C829.641 179.12 829.766 178.781 829.766 178.469L830.938 180.5C830.75 180.917 830.521 181.349 830.25 181.797C829.979 182.234 829.635 182.646 829.219 183.031C828.802 183.406 828.297 183.714 827.703 183.953C827.12 184.193 826.417 184.312 825.594 184.312C824.531 184.312 823.568 184.099 822.703 183.672C821.839 183.234 821.146 182.635 820.625 181.875C820.115 181.115 819.859 180.24 819.859 179.25C819.859 178.365 820.021 177.578 820.344 176.891C820.667 176.203 821.151 175.62 821.797 175.141C822.453 174.661 823.276 174.302 824.266 174.062C825.255 173.812 826.411 173.688 827.734 173.688H830.172ZM846.266 167.094V170.516H836.234V167.094H846.266ZM838.531 162.906H843.422V178.703C843.422 179.172 843.479 179.531 843.594 179.781C843.708 180.031 843.896 180.208 844.156 180.312C844.417 180.406 844.75 180.453 845.156 180.453C845.448 180.453 845.698 180.443 845.906 180.422C846.115 180.401 846.307 180.375 846.484 180.344V183.875C846.068 184.01 845.625 184.115 845.156 184.188C844.688 184.271 844.177 184.312 843.625 184.312C842.573 184.312 841.661 184.141 840.891 183.797C840.13 183.453 839.547 182.911 839.141 182.172C838.734 181.422 838.531 180.448 838.531 179.25V162.906ZM857.562 179.969V172.719C857.562 172.208 857.484 171.771 857.328 171.406C857.172 171.042 856.927 170.755 856.594 170.547C856.26 170.339 855.828 170.234 855.297 170.234C854.849 170.234 854.458 170.312 854.125 170.469C853.802 170.625 853.552 170.849 853.375 171.141C853.208 171.432 853.125 171.792 853.125 172.219H848.25C848.25 171.458 848.422 170.75 848.766 170.094C849.109 169.438 849.599 168.859 850.234 168.359C850.88 167.859 851.651 167.474 852.547 167.203C853.443 166.922 854.448 166.781 855.562 166.781C856.885 166.781 858.062 167.005 859.094 167.453C860.135 167.891 860.958 168.552 861.562 169.438C862.167 170.312 862.469 171.417 862.469 172.75V179.828C862.469 180.849 862.526 181.651 862.641 182.234C862.766 182.807 862.943 183.307 863.172 183.734V184H858.25C858.021 183.51 857.849 182.906 857.734 182.188C857.62 181.458 857.562 180.719 857.562 179.969ZM858.172 173.688L858.203 176.375H855.781C855.24 176.375 854.771 176.443 854.375 176.578C853.99 176.714 853.677 176.901 853.438 177.141C853.198 177.37 853.021 177.641 852.906 177.953C852.802 178.255 852.75 178.589 852.75 178.953C852.75 179.297 852.833 179.609 853 179.891C853.167 180.161 853.396 180.375 853.688 180.531C853.979 180.688 854.318 180.766 854.703 180.766C855.339 180.766 855.88 180.641 856.328 180.391C856.786 180.141 857.141 179.839 857.391 179.484C857.641 179.12 857.766 178.781 857.766 178.469L858.938 180.5C858.75 180.917 858.521 181.349 858.25 181.797C857.979 182.234 857.635 182.646 857.219 183.031C856.802 183.406 856.297 183.714 855.703 183.953C855.12 184.193 854.417 184.312 853.594 184.312C852.531 184.312 851.568 184.099 850.703 183.672C849.839 183.234 849.146 182.635 848.625 181.875C848.115 181.115 847.859 180.24 847.859 179.25C847.859 178.365 848.021 177.578 848.344 176.891C848.667 176.203 849.151 175.62 849.797 175.141C850.453 174.661 851.276 174.302 852.266 174.062C853.255 173.812 854.411 173.688 855.734 173.688H858.172Z" fill="black"/>
<g filter="url(#filter7_d_8_218)">
<rect x="53" y="243" width="249" height="103" rx="10" fill="white"/>
<rect x="53.5" y="243.5" width="248" height="102" rx="9.5" stroke="black"/>
</g>
<path d="M139.719 301.547L143.25 288.094H148.375L142.766 305H139.688L139.719 301.547ZM137.438 288.094L140.953 301.562L140.984 305H137.906L132.297 288.094H137.438ZM157.922 305.312C156.578 305.312 155.375 305.099 154.312 304.672C153.25 304.245 152.349 303.656 151.609 302.906C150.88 302.146 150.323 301.271 149.938 300.281C149.552 299.292 149.359 298.234 149.359 297.109V296.516C149.359 295.255 149.536 294.094 149.891 293.031C150.245 291.969 150.76 291.047 151.438 290.266C152.125 289.474 152.969 288.865 153.969 288.438C154.969 288 156.109 287.781 157.391 287.781C158.589 287.781 159.656 287.979 160.594 288.375C161.531 288.76 162.323 289.318 162.969 290.047C163.615 290.766 164.104 291.635 164.438 292.656C164.781 293.667 164.953 294.802 164.953 296.062V298.062H151.328V294.922H160.172V294.547C160.172 293.953 160.062 293.432 159.844 292.984C159.635 292.536 159.323 292.193 158.906 291.953C158.5 291.703 157.984 291.578 157.359 291.578C156.766 291.578 156.271 291.703 155.875 291.953C155.479 292.203 155.161 292.557 154.922 293.016C154.693 293.464 154.526 293.99 154.422 294.594C154.318 295.188 154.266 295.828 154.266 296.516V297.109C154.266 297.766 154.354 298.365 154.531 298.906C154.708 299.448 154.969 299.911 155.312 300.297C155.656 300.682 156.073 300.984 156.562 301.203C157.052 301.422 157.609 301.531 158.234 301.531C159.005 301.531 159.74 301.385 160.438 301.094C161.135 300.792 161.74 300.323 162.25 299.688L164.531 302.297C164.188 302.797 163.703 303.281 163.078 303.75C162.464 304.208 161.724 304.583 160.859 304.875C159.995 305.167 159.016 305.312 157.922 305.312ZM174.391 301.516C174.911 301.516 175.365 301.417 175.75 301.219C176.135 301.021 176.432 300.745 176.641 300.391C176.859 300.026 176.969 299.589 176.969 299.078H181.562C181.562 300.307 181.245 301.391 180.609 302.328C179.984 303.266 179.141 304 178.078 304.531C177.016 305.052 175.818 305.312 174.484 305.312C173.172 305.312 172.026 305.099 171.047 304.672C170.068 304.234 169.25 303.625 168.594 302.844C167.938 302.062 167.443 301.156 167.109 300.125C166.786 299.083 166.625 297.958 166.625 296.75V296.344C166.625 295.146 166.786 294.026 167.109 292.984C167.443 291.943 167.938 291.031 168.594 290.25C169.25 289.469 170.062 288.865 171.031 288.438C172.01 288 173.156 287.781 174.469 287.781C175.854 287.781 177.078 288.047 178.141 288.578C179.214 289.109 180.052 289.875 180.656 290.875C181.26 291.865 181.562 293.057 181.562 294.453H176.969C176.969 293.911 176.87 293.427 176.672 293C176.484 292.562 176.193 292.219 175.797 291.969C175.411 291.708 174.932 291.578 174.359 291.578C173.766 291.578 173.276 291.708 172.891 291.969C172.516 292.219 172.229 292.568 172.031 293.016C171.833 293.464 171.698 293.974 171.625 294.547C171.552 295.109 171.516 295.708 171.516 296.344V296.75C171.516 297.396 171.552 298.01 171.625 298.594C171.698 299.167 171.833 299.672 172.031 300.109C172.24 300.547 172.531 300.891 172.906 301.141C173.281 301.391 173.776 301.516 174.391 301.516ZM192.578 288.094V291.516H182.547V288.094H192.578ZM184.844 283.906H189.734V299.703C189.734 300.172 189.792 300.531 189.906 300.781C190.021 301.031 190.208 301.208 190.469 301.312C190.729 301.406 191.062 301.453 191.469 301.453C191.76 301.453 192.01 301.443 192.219 301.422C192.427 301.401 192.62 301.375 192.797 301.344V304.875C192.38 305.01 191.938 305.115 191.469 305.188C191 305.271 190.49 305.312 189.938 305.312C188.885 305.312 187.974 305.141 187.203 304.797C186.443 304.453 185.859 303.911 185.453 303.172C185.047 302.422 184.844 301.448 184.844 300.25V283.906ZM193.781 296.719V296.391C193.781 295.151 193.958 294.01 194.312 292.969C194.667 291.917 195.188 291.005 195.875 290.234C196.562 289.464 197.406 288.865 198.406 288.438C199.406 288 200.552 287.781 201.844 287.781C203.156 287.781 204.312 288 205.312 288.438C206.323 288.865 207.172 289.464 207.859 290.234C208.547 291.005 209.068 291.917 209.422 292.969C209.776 294.01 209.953 295.151 209.953 296.391V296.719C209.953 297.948 209.776 299.089 209.422 300.141C209.068 301.182 208.547 302.094 207.859 302.875C207.172 303.646 206.328 304.245 205.328 304.672C204.328 305.099 203.177 305.312 201.875 305.312C200.583 305.312 199.432 305.099 198.422 304.672C197.411 304.245 196.562 303.646 195.875 302.875C195.188 302.094 194.667 301.182 194.312 300.141C193.958 299.089 193.781 297.948 193.781 296.719ZM198.672 296.391V296.719C198.672 297.385 198.724 298.01 198.828 298.594C198.943 299.177 199.125 299.688 199.375 300.125C199.625 300.562 199.953 300.906 200.359 301.156C200.776 301.396 201.281 301.516 201.875 301.516C202.469 301.516 202.969 301.396 203.375 301.156C203.781 300.906 204.109 300.562 204.359 300.125C204.609 299.688 204.786 299.177 204.891 298.594C205.005 298.01 205.062 297.385 205.062 296.719V296.391C205.062 295.734 205.005 295.12 204.891 294.547C204.786 293.964 204.609 293.448 204.359 293C204.109 292.552 203.776 292.203 203.359 291.953C202.953 291.703 202.448 291.578 201.844 291.578C201.26 291.578 200.766 291.703 200.359 291.953C199.953 292.203 199.625 292.552 199.375 293C199.125 293.448 198.943 293.964 198.828 294.547C198.724 295.12 198.672 295.734 198.672 296.391ZM217.406 292.031V305H212.531V288.094H217.109L217.406 292.031ZM222.453 287.969L222.375 292.516C222.167 292.484 221.896 292.458 221.562 292.438C221.229 292.406 220.943 292.391 220.703 292.391C220.078 292.391 219.536 292.469 219.078 292.625C218.63 292.771 218.255 292.99 217.953 293.281C217.661 293.573 217.443 293.938 217.297 294.375C217.151 294.802 217.078 295.297 217.078 295.859L216.156 295.406C216.156 294.292 216.266 293.271 216.484 292.344C216.703 291.417 217.021 290.615 217.438 289.938C217.854 289.25 218.365 288.719 218.969 288.344C219.573 287.969 220.26 287.781 221.031 287.781C221.281 287.781 221.536 287.797 221.797 287.828C222.057 287.859 222.276 287.906 222.453 287.969Z" fill="black"/>
<g filter="url(#filter8_d_8_218)">
<rect x="362" y="243" width="249" height="103" rx="10" fill="white"/>
<rect x="362.5" y="243.5" width="248" height="102" rx="9.5" stroke="black"/>
</g>
<path d="M448.719 301.547L452.25 288.094H457.375L451.766 305H448.688L448.719 301.547ZM446.438 288.094L449.953 301.562L449.984 305H446.906L441.297 288.094H446.438ZM466.922 305.312C465.578 305.312 464.375 305.099 463.312 304.672C462.25 304.245 461.349 303.656 460.609 302.906C459.88 302.146 459.323 301.271 458.938 300.281C458.552 299.292 458.359 298.234 458.359 297.109V296.516C458.359 295.255 458.536 294.094 458.891 293.031C459.245 291.969 459.76 291.047 460.438 290.266C461.125 289.474 461.969 288.865 462.969 288.438C463.969 288 465.109 287.781 466.391 287.781C467.589 287.781 468.656 287.979 469.594 288.375C470.531 288.76 471.323 289.318 471.969 290.047C472.615 290.766 473.104 291.635 473.438 292.656C473.781 293.667 473.953 294.802 473.953 296.062V298.062H460.328V294.922H469.172V294.547C469.172 293.953 469.062 293.432 468.844 292.984C468.635 292.536 468.323 292.193 467.906 291.953C467.5 291.703 466.984 291.578 466.359 291.578C465.766 291.578 465.271 291.703 464.875 291.953C464.479 292.203 464.161 292.557 463.922 293.016C463.693 293.464 463.526 293.99 463.422 294.594C463.318 295.188 463.266 295.828 463.266 296.516V297.109C463.266 297.766 463.354 298.365 463.531 298.906C463.708 299.448 463.969 299.911 464.312 300.297C464.656 300.682 465.073 300.984 465.562 301.203C466.052 301.422 466.609 301.531 467.234 301.531C468.005 301.531 468.74 301.385 469.438 301.094C470.135 300.792 470.74 300.323 471.25 299.688L473.531 302.297C473.188 302.797 472.703 303.281 472.078 303.75C471.464 304.208 470.724 304.583 469.859 304.875C468.995 305.167 468.016 305.312 466.922 305.312ZM483.391 301.516C483.911 301.516 484.365 301.417 484.75 301.219C485.135 301.021 485.432 300.745 485.641 300.391C485.859 300.026 485.969 299.589 485.969 299.078H490.562C490.562 300.307 490.245 301.391 489.609 302.328C488.984 303.266 488.141 304 487.078 304.531C486.016 305.052 484.818 305.312 483.484 305.312C482.172 305.312 481.026 305.099 480.047 304.672C479.068 304.234 478.25 303.625 477.594 302.844C476.938 302.062 476.443 301.156 476.109 300.125C475.786 299.083 475.625 297.958 475.625 296.75V296.344C475.625 295.146 475.786 294.026 476.109 292.984C476.443 291.943 476.938 291.031 477.594 290.25C478.25 289.469 479.062 288.865 480.031 288.438C481.01 288 482.156 287.781 483.469 287.781C484.854 287.781 486.078 288.047 487.141 288.578C488.214 289.109 489.052 289.875 489.656 290.875C490.26 291.865 490.562 293.057 490.562 294.453H485.969C485.969 293.911 485.87 293.427 485.672 293C485.484 292.562 485.193 292.219 484.797 291.969C484.411 291.708 483.932 291.578 483.359 291.578C482.766 291.578 482.276 291.708 481.891 291.969C481.516 292.219 481.229 292.568 481.031 293.016C480.833 293.464 480.698 293.974 480.625 294.547C480.552 295.109 480.516 295.708 480.516 296.344V296.75C480.516 297.396 480.552 298.01 480.625 298.594C480.698 299.167 480.833 299.672 481.031 300.109C481.24 300.547 481.531 300.891 481.906 301.141C482.281 301.391 482.776 301.516 483.391 301.516ZM501.578 288.094V291.516H491.547V288.094H501.578ZM493.844 283.906H498.734V299.703C498.734 300.172 498.792 300.531 498.906 300.781C499.021 301.031 499.208 301.208 499.469 301.312C499.729 301.406 500.062 301.453 500.469 301.453C500.76 301.453 501.01 301.443 501.219 301.422C501.427 301.401 501.62 301.375 501.797 301.344V304.875C501.38 305.01 500.938 305.115 500.469 305.188C500 305.271 499.49 305.312 498.938 305.312C497.885 305.312 496.974 305.141 496.203 304.797C495.443 304.453 494.859 303.911 494.453 303.172C494.047 302.422 493.844 301.448 493.844 300.25V283.906ZM502.781 296.719V296.391C502.781 295.151 502.958 294.01 503.312 292.969C503.667 291.917 504.188 291.005 504.875 290.234C505.562 289.464 506.406 288.865 507.406 288.438C508.406 288 509.552 287.781 510.844 287.781C512.156 287.781 513.312 288 514.312 288.438C515.323 288.865 516.172 289.464 516.859 290.234C517.547 291.005 518.068 291.917 518.422 292.969C518.776 294.01 518.953 295.151 518.953 296.391V296.719C518.953 297.948 518.776 299.089 518.422 300.141C518.068 301.182 517.547 302.094 516.859 302.875C516.172 303.646 515.328 304.245 514.328 304.672C513.328 305.099 512.177 305.312 510.875 305.312C509.583 305.312 508.432 305.099 507.422 304.672C506.411 304.245 505.562 303.646 504.875 302.875C504.188 302.094 503.667 301.182 503.312 300.141C502.958 299.089 502.781 297.948 502.781 296.719ZM507.672 296.391V296.719C507.672 297.385 507.724 298.01 507.828 298.594C507.943 299.177 508.125 299.688 508.375 300.125C508.625 300.562 508.953 300.906 509.359 301.156C509.776 301.396 510.281 301.516 510.875 301.516C511.469 301.516 511.969 301.396 512.375 301.156C512.781 300.906 513.109 300.562 513.359 300.125C513.609 299.688 513.786 299.177 513.891 298.594C514.005 298.01 514.062 297.385 514.062 296.719V296.391C514.062 295.734 514.005 295.12 513.891 294.547C513.786 293.964 513.609 293.448 513.359 293C513.109 292.552 512.776 292.203 512.359 291.953C511.953 291.703 511.448 291.578 510.844 291.578C510.26 291.578 509.766 291.703 509.359 291.953C508.953 292.203 508.625 292.552 508.375 293C508.125 293.448 507.943 293.964 507.828 294.547C507.724 295.12 507.672 295.734 507.672 296.391ZM526.406 292.031V305H521.531V288.094H526.109L526.406 292.031ZM531.453 287.969L531.375 292.516C531.167 292.484 530.896 292.458 530.562 292.438C530.229 292.406 529.943 292.391 529.703 292.391C529.078 292.391 528.536 292.469 528.078 292.625C527.63 292.771 527.255 292.99 526.953 293.281C526.661 293.573 526.443 293.938 526.297 294.375C526.151 294.802 526.078 295.297 526.078 295.859L525.156 295.406C525.156 294.292 525.266 293.271 525.484 292.344C525.703 291.417 526.021 290.615 526.438 289.938C526.854 289.25 527.365 288.719 527.969 288.344C528.573 287.969 529.26 287.781 530.031 287.781C530.281 287.781 530.536 287.797 530.797 287.828C531.057 287.859 531.276 287.906 531.453 287.969Z" fill="black"/>
<g filter="url(#filter9_d_8_218)">
<rect x="671" y="243" width="249" height="103" rx="10" fill="#E4E7FE"/>
<rect x="671.5" y="243.5" width="248" height="102" rx="9.5" stroke="black"/>
</g>
<path d="M739.422 282.25V305H734.344V282.25H739.422ZM746.344 282.25V286.203H727.562V282.25H746.344ZM755.141 305.312C753.797 305.312 752.594 305.099 751.531 304.672C750.469 304.245 749.568 303.656 748.828 302.906C748.099 302.146 747.542 301.271 747.156 300.281C746.771 299.292 746.578 298.234 746.578 297.109V296.516C746.578 295.255 746.755 294.094 747.109 293.031C747.464 291.969 747.979 291.047 748.656 290.266C749.344 289.474 750.188 288.865 751.188 288.438C752.188 288 753.328 287.781 754.609 287.781C755.807 287.781 756.875 287.979 757.812 288.375C758.75 288.76 759.542 289.318 760.188 290.047C760.833 290.766 761.323 291.635 761.656 292.656C762 293.667 762.172 294.802 762.172 296.062V298.062H748.547V294.922H757.391V294.547C757.391 293.953 757.281 293.432 757.062 292.984C756.854 292.536 756.542 292.193 756.125 291.953C755.719 291.703 755.203 291.578 754.578 291.578C753.984 291.578 753.49 291.703 753.094 291.953C752.698 292.203 752.38 292.557 752.141 293.016C751.911 293.464 751.745 293.99 751.641 294.594C751.536 295.188 751.484 295.828 751.484 296.516V297.109C751.484 297.766 751.573 298.365 751.75 298.906C751.927 299.448 752.188 299.911 752.531 300.297C752.875 300.682 753.292 300.984 753.781 301.203C754.271 301.422 754.828 301.531 755.453 301.531C756.224 301.531 756.958 301.385 757.656 301.094C758.354 300.792 758.958 300.323 759.469 299.688L761.75 302.297C761.406 302.797 760.922 303.281 760.297 303.75C759.682 304.208 758.943 304.583 758.078 304.875C757.214 305.167 756.234 305.312 755.141 305.312ZM768.578 288.094L771.172 292.984L773.844 288.094H778.969L774.359 296.344L779.188 305H774.031L771.188 299.781L768.359 305H763.188L768.016 296.344L763.422 288.094H768.578ZM789.547 288.094V291.516H779.516V288.094H789.547ZM781.812 283.906H786.703V299.703C786.703 300.172 786.76 300.531 786.875 300.781C786.99 301.031 787.177 301.208 787.438 301.312C787.698 301.406 788.031 301.453 788.438 301.453C788.729 301.453 788.979 301.443 789.188 301.422C789.396 301.401 789.589 301.375 789.766 301.344V304.875C789.349 305.01 788.906 305.115 788.438 305.188C787.969 305.271 787.458 305.312 786.906 305.312C785.854 305.312 784.943 305.141 784.172 304.797C783.411 304.453 782.828 303.911 782.422 303.172C782.016 302.422 781.812 301.448 781.812 300.25V283.906ZM807.312 305H802.312L802.344 301.062H807.312C808.448 301.062 809.406 300.802 810.188 300.281C810.969 299.75 811.562 298.969 811.969 297.938C812.375 296.896 812.578 295.63 812.578 294.141V293.094C812.578 291.969 812.464 290.979 812.234 290.125C812.005 289.26 811.667 288.536 811.219 287.953C810.771 287.37 810.214 286.932 809.547 286.641C808.891 286.349 808.135 286.203 807.281 286.203H802.219V282.25H807.281C808.823 282.25 810.229 282.51 811.5 283.031C812.781 283.552 813.885 284.297 814.812 285.266C815.75 286.234 816.474 287.38 816.984 288.703C817.495 290.026 817.75 291.5 817.75 293.125V294.141C817.75 295.755 817.495 297.229 816.984 298.562C816.474 299.885 815.75 301.031 814.812 302C813.885 302.958 812.786 303.698 811.516 304.219C810.245 304.74 808.844 305 807.312 305ZM805.203 282.25V305H800.109V282.25H805.203ZM829.562 300.969V293.719C829.562 293.208 829.484 292.771 829.328 292.406C829.172 292.042 828.927 291.755 828.594 291.547C828.26 291.339 827.828 291.234 827.297 291.234C826.849 291.234 826.458 291.312 826.125 291.469C825.802 291.625 825.552 291.849 825.375 292.141C825.208 292.432 825.125 292.792 825.125 293.219H820.25C820.25 292.458 820.422 291.75 820.766 291.094C821.109 290.438 821.599 289.859 822.234 289.359C822.88 288.859 823.651 288.474 824.547 288.203C825.443 287.922 826.448 287.781 827.562 287.781C828.885 287.781 830.062 288.005 831.094 288.453C832.135 288.891 832.958 289.552 833.562 290.438C834.167 291.312 834.469 292.417 834.469 293.75V300.828C834.469 301.849 834.526 302.651 834.641 303.234C834.766 303.807 834.943 304.307 835.172 304.734V305H830.25C830.021 304.51 829.849 303.906 829.734 303.188C829.62 302.458 829.562 301.719 829.562 300.969ZM830.172 294.688L830.203 297.375H827.781C827.24 297.375 826.771 297.443 826.375 297.578C825.99 297.714 825.677 297.901 825.438 298.141C825.198 298.37 825.021 298.641 824.906 298.953C824.802 299.255 824.75 299.589 824.75 299.953C824.75 300.297 824.833 300.609 825 300.891C825.167 301.161 825.396 301.375 825.688 301.531C825.979 301.688 826.318 301.766 826.703 301.766C827.339 301.766 827.88 301.641 828.328 301.391C828.786 301.141 829.141 300.839 829.391 300.484C829.641 300.12 829.766 299.781 829.766 299.469L830.938 301.5C830.75 301.917 830.521 302.349 830.25 302.797C829.979 303.234 829.635 303.646 829.219 304.031C828.802 304.406 828.297 304.714 827.703 304.953C827.12 305.193 826.417 305.312 825.594 305.312C824.531 305.312 823.568 305.099 822.703 304.672C821.839 304.234 821.146 303.635 820.625 302.875C820.115 302.115 819.859 301.24 819.859 300.25C819.859 299.365 820.021 298.578 820.344 297.891C820.667 297.203 821.151 296.62 821.797 296.141C822.453 295.661 823.276 295.302 824.266 295.062C825.255 294.812 826.411 294.688 827.734 294.688H830.172ZM846.266 288.094V291.516H836.234V288.094H846.266ZM838.531 283.906H843.422V299.703C843.422 300.172 843.479 300.531 843.594 300.781C843.708 301.031 843.896 301.208 844.156 301.312C844.417 301.406 844.75 301.453 845.156 301.453C845.448 301.453 845.698 301.443 845.906 301.422C846.115 301.401 846.307 301.375 846.484 301.344V304.875C846.068 305.01 845.625 305.115 845.156 305.188C844.688 305.271 844.177 305.312 843.625 305.312C842.573 305.312 841.661 305.141 840.891 304.797C840.13 304.453 839.547 303.911 839.141 303.172C838.734 302.422 838.531 301.448 838.531 300.25V283.906ZM857.562 300.969V293.719C857.562 293.208 857.484 292.771 857.328 292.406C857.172 292.042 856.927 291.755 856.594 291.547C856.26 291.339 855.828 291.234 855.297 291.234C854.849 291.234 854.458 291.312 854.125 291.469C853.802 291.625 853.552 291.849 853.375 292.141C853.208 292.432 853.125 292.792 853.125 293.219H848.25C848.25 292.458 848.422 291.75 848.766 291.094C849.109 290.438 849.599 289.859 850.234 289.359C850.88 288.859 851.651 288.474 852.547 288.203C853.443 287.922 854.448 287.781 855.562 287.781C856.885 287.781 858.062 288.005 859.094 288.453C860.135 288.891 860.958 289.552 861.562 290.438C862.167 291.312 862.469 292.417 862.469 293.75V300.828C862.469 301.849 862.526 302.651 862.641 303.234C862.766 303.807 862.943 304.307 863.172 304.734V305H858.25C858.021 304.51 857.849 303.906 857.734 303.188C857.62 302.458 857.562 301.719 857.562 300.969ZM858.172 294.688L858.203 297.375H855.781C855.24 297.375 854.771 297.443 854.375 297.578C853.99 297.714 853.677 297.901 853.438 298.141C853.198 298.37 853.021 298.641 852.906 298.953C852.802 299.255 852.75 299.589 852.75 299.953C852.75 300.297 852.833 300.609 853 300.891C853.167 301.161 853.396 301.375 853.688 301.531C853.979 301.688 854.318 301.766 854.703 301.766C855.339 301.766 855.88 301.641 856.328 301.391C856.786 301.141 857.141 300.839 857.391 300.484C857.641 300.12 857.766 299.781 857.766 299.469L858.938 301.5C858.75 301.917 858.521 302.349 858.25 302.797C857.979 303.234 857.635 303.646 857.219 304.031C856.802 304.406 856.297 304.714 855.703 304.953C855.12 305.193 854.417 305.312 853.594 305.312C852.531 305.312 851.568 305.099 850.703 304.672C849.839 304.234 849.146 303.635 848.625 302.875C848.115 302.115 847.859 301.24 847.859 300.25C847.859 299.365 848.021 298.578 848.344 297.891C848.667 297.203 849.151 296.62 849.797 296.141C850.453 295.661 851.276 295.302 852.266 295.062C853.255 294.812 854.411 294.688 855.734 294.688H858.172Z" fill="black"/>
<defs>
<filter id="filter0_d_8_218" x="0" y="0" width="967" height="398" filterUnits="userSpaceOnUse" color-interpolation-filters="sRGB">
<feFlood flood-opacity="0" result="BackgroundImageFix"/>
<feColorMatrix in="SourceAlpha" type="matrix" values="0 0 0 0 0 0 0 0 0 0 0 0 0 0 0 0 0 0 127 0" result="hardAlpha"/>
<feOffset dy="4"/>
<feGaussianBlur stdDeviation="2"/>
<feComposite in2="hardAlpha" operator="out"/>
<feColorMatrix type="matrix" values="0 0 0 0 0 0 0 0 0 0 0 0 0 0 0 0 0 0 0.25 0"/>
<feBlend mode="normal" in2="BackgroundImageFix" result="effect1_dropShadow_8_218"/>
<feBlend mode="normal" in="SourceGraphic" in2="effect1_dropShadow_8_218" result="shape"/>
</filter>
<filter id="filter1_d_8_218" x="38" y="68" width="279" height="310" filterUnits="userSpaceOnUse" color-interpolation-filters="sRGB">
<feFlood flood-opacity="0" result="BackgroundImageFix"/>
<feColorMatrix in="SourceAlpha" type="matrix" values="0 0 0 0 0 0 0 0 0 0 0 0 0 0 0 0 0 0 127 0" result="hardAlpha"/>
<feOffset dy="4"/>
<feGaussianBlur stdDeviation="2"/>
<feComposite in2="hardAlpha" operator="out"/>
<feColorMatrix type="matrix" values="0 0 0 0 0 0 0 0 0 0 0 0 0 0 0 0 0 0 0.25 0"/>
<feBlend mode="normal" in2="BackgroundImageFix" result="effect1_dropShadow_8_218"/>
<feBlend mode="normal" in="SourceGraphic" in2="effect1_dropShadow_8_218" result="shape"/>
</filter>
<filter id="filter2_d_8_218" x="347" y="68" width="279" height="310" filterUnits="userSpaceOnUse" color-interpolation-filters="sRGB">
<feFlood flood-opacity="0" result="BackgroundImageFix"/>
<feColorMatrix in="SourceAlpha" type="matrix" values="0 0 0 0 0 0 0 0 0 0 0 0 0 0 0 0 0 0 127 0" result="hardAlpha"/>
<feOffset dy="4"/>
<feGaussianBlur stdDeviation="2"/>
<feComposite in2="hardAlpha" operator="out"/>
<feColorMatrix type="matrix" values="0 0 0 0 0 0 0 0 0 0 0 0 0 0 0 0 0 0 0.25 0"/>
<feBlend mode="normal" in2="BackgroundImageFix" result="effect1_dropShadow_8_218"/>
<feBlend mode="normal" in="SourceGraphic" in2="effect1_dropShadow_8_218" result="shape"/>
</filter>
<filter id="filter3_d_8_218" x="656" y="68" width="279" height="310" filterUnits="userSpaceOnUse" color-interpolation-filters="sRGB">
<feFlood flood-opacity="0" result="BackgroundImageFix"/>
<feColorMatrix in="SourceAlpha" type="matrix" values="0 0 0 0 0 0 0 0 0 0 0 0 0 0 0 0 0 0 127 0" result="hardAlpha"/>
<feOffset dy="4"/>
<feGaussianBlur stdDeviation="2"/>
<feComposite in2="hardAlpha" operator="out"/>
<feColorMatrix type="matrix" values="0 0 0 0 0 0 0 0 0 0 0 0 0 0 0 0 0 0 0.25 0"/>
<feBlend mode="normal" in2="BackgroundImageFix" result="effect1_dropShadow_8_218"/>
<feBlend mode="normal" in="SourceGraphic" in2="effect1_dropShadow_8_218" result="shape"/>
</filter>
<filter id="filter4_d_8_218" x="50" y="122" width="257" height="111" filterUnits="userSpaceOnUse" color-interpolation-filters="sRGB">
<feFlood flood-opacity="0" result="BackgroundImageFix"/>
<feColorMatrix in="SourceAlpha" type="matrix" values="0 0 0 0 0 0 0 0 0 0 0 0 0 0 0 0 0 0 127 0" result="hardAlpha"/>
<feOffset dy="4"/>
<feGaussianBlur stdDeviation="2"/>
<feComposite in2="hardAlpha" operator="out"/>
<feColorMatrix type="matrix" values="0 0 0 0 0 0 0 0 0 0 0 0 0 0 0 0 0 0 0.25 0"/>
<feBlend mode="normal" in2="BackgroundImageFix" result="effect1_dropShadow_8_218"/>
<feBlend mode="normal" in="SourceGraphic" in2="effect1_dropShadow_8_218" result="shape"/>
</filter>
<filter id="filter5_d_8_218" x="358" y="122" width="257" height="111" filterUnits="userSpaceOnUse" color-interpolation-filters="sRGB">
<feFlood flood-opacity="0" result="BackgroundImageFix"/>
<feColorMatrix in="SourceAlpha" type="matrix" values="0 0 0 0 0 0 0 0 0 0 0 0 0 0 0 0 0 0 127 0" result="hardAlpha"/>
<feOffset dy="4"/>
<feGaussianBlur stdDeviation="2"/>
<feComposite in2="hardAlpha" operator="out"/>
<feColorMatrix type="matrix" values="0 0 0 0 0 0 0 0 0 0 0 0 0 0 0 0 0 0 0.25 0"/>
<feBlend mode="normal" in2="BackgroundImageFix" result="effect1_dropShadow_8_218"/>
<feBlend mode="normal" in="SourceGraphic" in2="effect1_dropShadow_8_218" result="shape"/>
</filter>
<filter id="filter6_d_8_218" x="667" y="122" width="257" height="111" filterUnits="userSpaceOnUse" color-interpolation-filters="sRGB">
<feFlood flood-opacity="0" result="BackgroundImageFix"/>
<feColorMatrix in="SourceAlpha" type="matrix" values="0 0 0 0 0 0 0 0 0 0 0 0 0 0 0 0 0 0 127 0" result="hardAlpha"/>
<feOffset dy="4"/>
<feGaussianBlur stdDeviation="2"/>
<feComposite in2="hardAlpha" operator="out"/>
<feColorMatrix type="matrix" values="0 0 0 0 0 0 0 0 0 0 0 0 0 0 0 0 0 0 0.25 0"/>
<feBlend mode="normal" in2="BackgroundImageFix" result="effect1_dropShadow_8_218"/>
<feBlend mode="normal" in="SourceGraphic" in2="effect1_dropShadow_8_218" result="shape"/>
</filter>
<filter id="filter7_d_8_218" x="49" y="243" width="257" height="111" filterUnits="userSpaceOnUse" color-interpolation-filters="sRGB">
<feFlood flood-opacity="0" result="BackgroundImageFix"/>
<feColorMatrix in="SourceAlpha" type="matrix" values="0 0 0 0 0 0 0 0 0 0 0 0 0 0 0 0 0 0 127 0" result="hardAlpha"/>
<feOffset dy="4"/>
<feGaussianBlur stdDeviation="2"/>
<feComposite in2="hardAlpha" operator="out"/>
<feColorMatrix type="matrix" values="0 0 0 0 0 0 0 0 0 0 0 0 0 0 0 0 0 0 0.25 0"/>
<feBlend mode="normal" in2="BackgroundImageFix" result="effect1_dropShadow_8_218"/>
<feBlend mode="normal" in="SourceGraphic" in2="effect1_dropShadow_8_218" result="shape"/>
</filter>
<filter id="filter8_d_8_218" x="358" y="243" width="257" height="111" filterUnits="userSpaceOnUse" color-interpolation-filters="sRGB">
<feFlood flood-opacity="0" result="BackgroundImageFix"/>
<feColorMatrix in="SourceAlpha" type="matrix" values="0 0 0 0 0 0 0 0 0 0 0 0 0 0 0 0 0 0 127 0" result="hardAlpha"/>
<feOffset dy="4"/>
<feGaussianBlur stdDeviation="2"/>
<feComposite in2="hardAlpha" operator="out"/>
<feColorMatrix type="matrix" values="0 0 0 0 0 0 0 0 0 0 0 0 0 0 0 0 0 0 0.25 0"/>
<feBlend mode="normal" in2="BackgroundImageFix" result="effect1_dropShadow_8_218"/>
<feBlend mode="normal" in="SourceGraphic" in2="effect1_dropShadow_8_218" result="shape"/>
</filter>
<filter id="filter9_d_8_218" x="667" y="243" width="257" height="111" filterUnits="userSpaceOnUse" color-interpolation-filters="sRGB">
<feFlood flood-opacity="0" result="BackgroundImageFix"/>
<feColorMatrix in="SourceAlpha" type="matrix" values="0 0 0 0 0 0 0 0 0 0 0 0 0 0 0 0 0 0 127 0" result="hardAlpha"/>
<feOffset dy="4"/>
<feGaussianBlur stdDeviation="2"/>
<feComposite in2="hardAlpha" operator="out"/>
<feColorMatrix type="matrix" values="0 0 0 0 0 0 0 0 0 0 0 0 0 0 0 0 0 0 0.25 0"/>
<feBlend mode="normal" in2="BackgroundImageFix" result="effect1_dropShadow_8_218"/>
<feBlend mode="normal" in="SourceGraphic" in2="effect1_dropShadow_8_218" result="shape"/>
</filter>
</defs>
</svg>
